<?xml version="1.0" standalone="no"?>
<!DOCTYPE svg PUBLIC "-//W3C//DTD SVG 20010904//EN"
 "http://www.w3.org/TR/2001/REC-SVG-20010904/DTD/svg10.dtd">
<svg version="1.0" xmlns="http://www.w3.org/2000/svg"
 width="3300.000000pt" height="2550.000000pt" viewBox="0 0 3300.000000 2550.000000"
 preserveAspectRatio="xMidYMid meet">
<metadata>
Created by potrace 1.15, written by Peter Selinger 2001-2017
</metadata>
<g transform="translate(0.000000,2550.000000) scale(0.100000,-0.100000)"
fill="#000000" stroke="none">
<path d="M12600 18021 c-78 -17 -154 -71 -186 -132 l-14 -28 -73 34 c-173 80
-330 115 -514 115 -297 0 -549 -108 -779 -334 -79 -79 -98 -104 -138 -187 -66
-136 -96 -263 -96 -403 0 -233 75 -410 249 -589 42 -44 98 -95 126 -115 l50
-37 -78 -7 c-239 -22 -457 -142 -631 -348 -156 -185 -262 -403 -318 -658 -30
-134 -32 -437 -5 -557 45 -192 130 -421 232 -625 36 -71 65 -133 65 -137 0 -5
-14 -13 -31 -18 -79 -27 -169 -153 -169 -237 0 -30 -4 -38 -17 -38 -10 0 -79
-7 -153 -16 -666 -77 -1331 -295 -1823 -598 -480 -296 -813 -652 -1038 -1111
-144 -296 -224 -585 -258 -939 -14 -138 -14 -543 -1 -701 56 -658 240 -1181
571 -1622 95 -126 288 -325 414 -426 404 -326 942 -550 1492 -622 400 -52 823
30 1258 245 271 134 484 276 657 439 l78 73 0 -68 c0 -169 30 -317 87 -434 93
-192 302 -322 648 -403 231 -55 570 -79 671 -49 140 41 208 174 184 354 -21
154 -67 313 -270 935 -153 465 -223 743 -251 988 -11 100 -7 221 9 264 l8 23
31 -26 c60 -51 83 -149 148 -636 25 -184 52 -375 60 -425 42 -246 115 -427
209 -513 85 -77 124 -87 346 -87 167 0 192 -2 258 -24 62 -20 88 -23 170 -19
116 5 191 34 260 101 70 67 95 126 100 232 2 50 -1 108 -6 129 l-11 38 47 -44
c131 -121 311 -188 505 -188 269 0 521 169 657 440 103 204 146 408 170 800 7
102 13 186 15 188 1 1 5 -25 9 -59 3 -34 20 -129 36 -211 120 -596 401 -954
815 -1039 110 -23 237 -24 319 -3 85 21 248 102 327 163 67 51 190 169 215
206 13 20 18 16 106 -70 153 -149 292 -208 488 -208 132 0 214 19 345 83 118
58 209 135 298 255 74 100 165 285 215 436 l38 117 27 -135 c109 -538 333
-845 677 -929 102 -25 292 -25 375 0 180 54 341 194 426 369 13 26 26 46 29
44 57 -32 169 -80 215 -92 78 -20 240 -20 318 1 180 46 372 201 514 415 25 38
48 68 50 66 2 -2 14 -40 27 -83 81 -272 193 -418 351 -459 107 -27 209 -15
315 38 36 17 68 33 71 35 3 1 19 -17 34 -40 42 -63 132 -154 202 -204 158
-113 367 -165 586 -144 211 21 367 92 518 237 l66 64 42 -87 c155 -323 393
-531 673 -588 99 -20 288 -21 404 -1 331 57 673 254 911 525 284 325 422 705
383 1057 -26 242 -96 377 -223 434 -71 32 -196 32 -278 0 -120 -46 -250 -158
-395 -336 -170 -209 -390 -391 -599 -495 -135 -67 -227 -92 -270 -72 -49 22
-71 122 -40 182 22 43 71 76 193 129 486 213 865 502 1101 839 76 110 165 299
196 415 113 441 -3 916 -280 1140 -77 62 -182 113 -267 129 -38 7 -68 15 -68
19 0 4 18 9 39 13 138 22 397 137 532 237 151 112 293 275 359 413 54 113 73
221 68 381 -4 123 -8 150 -35 227 -50 144 -105 230 -223 349 -112 113 -213
185 -348 250 -461 222 -1165 205 -1835 -43 -61 -23 -239 -106 -394 -185 -233
-118 -290 -143 -325 -143 -52 0 -124 22 -428 132 -355 129 -710 241 -923 291
-4 1 -9 43 -10 92 -3 107 -24 160 -104 273 -125 174 -159 287 -203 682 -19
161 -21 228 -17 380 10 306 71 874 98 907 20 23 60 40 139 58 63 14 166 18
620 25 417 6 563 12 620 23 141 28 220 67 289 142 133 144 116 349 -37 446
-135 86 -269 94 -1422 86 -912 -7 -1220 -16 -1455 -42 -556 -61 -962 -213
-1054 -393 -34 -68 -47 -168 -33 -264 28 -195 138 -298 321 -302 l66 -1 -60
-39 c-155 -100 -260 -223 -364 -425 -38 -75 -84 -177 -100 -226 l-31 -90 0 61
c0 167 -101 329 -250 402 -104 51 -178 66 -320 66 -140 -1 -217 -15 -336 -65
-211 -88 -438 -305 -563 -539 l-43 -80 -36 45 c-127 156 -402 263 -724 282
l-107 6 122 49 c170 68 316 141 417 209 146 98 199 174 200 285 0 116 -70 208
-182 234 -79 19 -169 7 -453 -64 -442 -110 -688 -155 -965 -177 -403 -32
-1017 44 -1433 178 -91 29 -107 37 -102 51 45 109 49 129 49 242 1 125 -10
170 -66 285 -62 124 -198 281 -320 368 -36 26 -155 102 -264 168 -247 150
-340 217 -415 296 -56 60 -79 107 -79 161 0 48 -49 111 -102 131 -38 14 -146
21 -188 12z m66 -109 c5 -4 16 -32 23 -63 33 -152 165 -273 546 -505 263 -159
340 -217 426 -318 185 -217 211 -406 82 -603 -42 -64 -92 -109 -152 -137 -71
-33 -210 -29 -316 7 -166 58 -270 133 -531 387 -291 282 -440 403 -599 481
-153 76 -254 64 -348 -41 -78 -86 -87 -191 -27 -310 58 -116 167 -200 495
-383 316 -176 706 -365 1010 -489 270 -110 418 -200 564 -341 248 -242 365
-533 378 -942 14 -443 -99 -907 -289 -1195 -59 -90 -195 -228 -284 -290 -317
-219 -760 -269 -1381 -155 -554 102 -914 282 -1263 634 -264 264 -454 567
-594 944 -126 339 -138 603 -40 907 98 307 306 565 540 671 205 93 416 75 689
-61 173 -86 288 -172 455 -340 160 -160 244 -273 315 -423 54 -114 75 -194 75
-283 0 -131 -40 -206 -147 -277 -100 -66 -205 -99 -318 -99 -106 0 -183 16
-362 78 -159 54 -214 62 -265 41 -39 -17 -78 -67 -78 -102 0 -71 111 -200 262
-308 318 -226 644 -285 958 -172 349 126 589 341 645 576 34 148 10 316 -67
461 -100 188 -273 326 -858 683 -521 318 -690 428 -895 582 -281 211 -384 378
-385 624 0 175 68 345 184 459 131 129 239 197 396 252 93 32 98 33 265 32
157 0 177 -2 260 -28 157 -48 314 -129 443 -229 35 -27 65 -47 67 -45 3 2 -5
33 -16 68 -26 83 -28 170 -5 205 27 42 110 69 142 47z m9825 -832 c175 -11
227 -22 275 -64 29 -25 36 -38 36 -67 0 -62 -40 -118 -109 -153 -91 -46 -122
-48 -683 -57 -403 -5 -559 -11 -632 -23 -173 -28 -273 -76 -315 -151 -42 -77
-101 -600 -110 -975 -5 -221 -3 -280 16 -444 45 -396 92 -551 218 -720 96
-129 114 -222 51 -269 -43 -32 -102 -17 -207 54 -257 172 -391 460 -458 990
-22 177 -24 812 -4 1108 14 197 14 205 -5 239 -38 70 -59 77 -212 75 -395 -6
-576 -34 -875 -135 -139 -47 -160 -52 -245 -52 l-93 -1 -34 36 c-22 24 -36 54
-44 88 -34 158 13 230 203 314 180 79 428 139 711 172 369 43 2006 65 2516 35z
m-10345 -156 c121 -67 260 -183 529 -445 94 -91 195 -184 224 -207 29 -23 50
-42 47 -42 -18 0 -452 228 -636 333 -236 135 -314 198 -352 284 -22 51 -18 73
22 107 26 22 34 23 67 14 21 -5 65 -25 99 -44z m8292 -675 c-8 -87 -13 -308
-13 -560 l0 -417 -51 -11 c-60 -14 -144 -62 -223 -128 -31 -26 -64 -54 -75
-62 -10 -9 7 22 38 69 144 217 226 447 226 639 0 248 -126 416 -366 487 -33
10 -112 20 -179 23 l-120 6 80 23 c121 34 248 51 480 65 116 7 211 12 213 11
1 -1 -3 -66 -10 -145z m-3553 -4 c14 -13 25 -32 25 -42 0 -98 -285 -261 -710
-407 -387 -133 -782 -219 -1077 -233 -109 -5 -133 -9 -137 -22 -26 -88 -96
-545 -125 -821 -55 -516 13 -973 204 -1365 75 -154 90 -201 81 -249 -14 -74
-98 -135 -185 -136 -65 0 -122 32 -196 112 -142 154 -290 543 -362 953 -21
123 -25 627 -5 830 19 192 49 442 73 593 11 74 19 135 17 137 -2 1 -85 10
-185 20 -332 30 -431 63 -554 185 -51 50 -70 77 -84 120 -26 77 -23 179 7 239
47 93 131 108 298 52 410 -139 1041 -221 1478 -193 311 20 589 69 1033 181
268 68 268 68 332 70 39 1 53 -4 72 -24z m2967 -76 c121 -26 208 -90 249 -182
32 -72 32 -209 0 -322 -53 -189 -191 -422 -346 -583 -101 -104 -110 -124 -80
-181 22 -44 75 -64 159 -59 93 5 171 40 273 124 144 119 232 182 263 189 58
13 109 -49 96 -118 -9 -50 -68 -165 -120 -235 -104 -140 -283 -283 -422 -335
-214 -82 -441 -77 -629 13 -154 74 -303 233 -369 395 -62 153 -78 382 -38 548
25 100 122 318 181 405 117 172 282 294 459 337 70 17 253 19 324 4z m-1602
-340 c134 -21 226 -84 272 -184 19 -42 23 -66 22 -155 0 -94 -4 -116 -38 -215
-66 -197 -192 -400 -343 -553 -59 -59 -83 -91 -83 -108 0 -79 80 -131 184
-120 94 10 181 56 314 168 187 156 237 170 276 76 19 -45 19 -49 2 -112 -27
-99 -80 -180 -186 -286 -77 -78 -112 -104 -185 -142 -118 -61 -215 -88 -345
-95 -174 -9 -330 26 -480 110 -111 62 -254 208 -302 307 -54 112 -63 163 -63
350 0 142 3 176 23 243 91 315 350 600 630 691 105 35 197 42 302 25z m-5611
-403 c267 -190 380 -349 381 -538 1 -200 -129 -362 -398 -497 -257 -129 -459
-144 -699 -52 -77 30 -221 114 -295 172 l-33 27 90 -30 c298 -97 539 -71 766
83 257 174 274 534 43 901 -42 67 -39 66 145 -66z m3917 38 c325 -47 510 -167
560 -363 30 -120 5 -202 -107 -351 -75 -99 -280 -307 -429 -434 -58 -50 -111
-95 -118 -101 -11 -10 -2 -25 44 -79 108 -128 275 -255 429 -327 135 -64 211
-81 381 -86 212 -7 304 13 682 147 429 154 600 175 755 92 59 -31 135 -111
176 -184 l31 -55 92 -12 c359 -46 571 -276 633 -688 18 -118 20 -682 5 -1843
-15 -1242 -15 -1358 -1 -1425 31 -142 90 -199 181 -175 70 19 76 42 90 390 16
364 47 638 105 935 97 488 339 981 615 1256 211 209 442 285 608 200 46 -24
129 -111 167 -174 100 -172 174 -490 205 -881 5 -71 10 -305 10 -520 0 -760
40 -1073 147 -1172 58 -54 148 -19 191 74 l27 57 6 400 c4 220 12 468 18 550
34 454 63 747 147 1465 49 423 49 452 3 550 -67 141 -236 245 -519 316 -165
42 -621 127 -707 132 -77 4 -83 3 -107 -22 -49 -48 -34 -139 59 -350 30 -66
58 -139 63 -161 10 -47 0 -85 -24 -85 -23 0 -250 110 -348 169 -218 132 -412
318 -518 496 -62 104 -90 196 -95 315 -5 95 -3 113 22 185 31 94 100 201 158
249 287 233 951 159 2017 -224 450 -162 479 -171 565 -177 108 -7 157 11 420
149 353 187 617 279 960 337 520 88 957 24 1270 -184 253 -168 387 -405 372
-655 -11 -181 -90 -333 -252 -489 -131 -126 -264 -204 -448 -266 -414 -138
-938 -123 -1609 46 -190 47 -267 51 -343 15 -178 -83 -273 -364 -315 -931 -34
-477 -32 -1117 6 -1374 47 -327 147 -471 327 -471 72 0 121 23 175 85 45 51
67 101 148 330 287 821 630 1438 947 1706 187 158 389 225 560 185 100 -24
164 -60 244 -141 56 -57 82 -94 117 -167 75 -156 90 -231 91 -448 0 -212 -15
-289 -83 -448 -158 -367 -596 -750 -1118 -978 -201 -88 -273 -142 -314 -238
-60 -138 -11 -319 104 -391 45 -27 57 -30 135 -30 102 1 169 19 298 81 242
115 498 329 691 576 116 148 267 261 364 274 84 10 152 -53 184 -171 25 -92
30 -301 10 -408 -50 -264 -176 -488 -400 -713 -184 -184 -350 -289 -571 -363
-585 -195 -1007 91 -1184 804 l-28 110 -13 -40 c-17 -54 -76 -170 -113 -225
-91 -133 -228 -238 -373 -286 -82 -27 -101 -29 -229 -28 -124 0 -149 3 -221
27 -208 69 -365 243 -434 484 l-23 82 -22 -54 c-60 -147 -174 -235 -305 -235
-131 0 -206 83 -280 310 -48 146 -110 507 -110 637 0 24 -3 43 -8 43 -4 0 -20
-39 -37 -87 -37 -110 -168 -375 -233 -473 -68 -101 -149 -195 -217 -251 -225
-185 -481 -169 -701 45 l-84 81 -11 -40 c-27 -105 -41 -146 -77 -220 -103
-211 -254 -314 -457 -315 -103 0 -192 19 -273 57 -69 32 -202 162 -250 245
-115 196 -195 494 -239 888 -13 117 -17 245 -18 525 l0 370 -64 -32 c-35 -18
-72 -33 -82 -33 -17 0 -19 -9 -19 -109 0 -325 -64 -765 -151 -1036 -118 -368
-284 -578 -519 -655 -96 -32 -256 -35 -337 -7 -144 50 -290 194 -380 371 l-34
68 -40 -68 c-64 -109 -134 -197 -225 -283 -93 -88 -181 -145 -289 -188 -102
-40 -223 -38 -357 6 -326 106 -536 421 -633 948 -46 246 -57 393 -62 833 -4
365 -7 417 -21 428 -22 17 -125 15 -169 -3 -57 -24 -101 -62 -124 -108 -21
-40 -21 -48 -13 -252 13 -300 10 -813 -5 -995 -33 -397 -111 -639 -261 -803
-134 -147 -310 -209 -491 -173 -121 24 -212 71 -298 151 -213 201 -312 540
-341 1165 -14 312 7 542 75 810 109 430 332 812 535 915 66 33 175 50 240 36
123 -26 178 -74 296 -252 114 -174 154 -203 242 -179 83 22 182 113 483 445
202 222 427 446 570 566 356 300 576 370 729 232 88 -79 140 -185 187 -383 20
-86 26 -140 30 -300 9 -340 -45 -586 -151 -689 -29 -28 -45 -35 -90 -39 -110
-9 -164 33 -248 191 -94 180 -157 217 -319 187 -140 -26 -249 -118 -322 -271
-87 -182 -120 -385 -121 -749 -1 -415 45 -683 155 -906 151 -308 509 -419 781
-242 36 24 93 68 126 98 l61 56 -24 94 c-49 195 -60 299 -60 550 1 327 29 476
155 824 180 494 345 764 551 899 106 70 264 102 382 78 130 -28 274 -129 353
-249 75 -112 102 -233 125 -552 6 -91 14 -167 16 -170 3 -3 35 11 71 31 l67
35 6 175 c22 630 32 1242 21 1333 -13 105 -40 175 -80 206 -53 42 -162 19
-275 -58 -64 -44 -154 -88 -237 -114 -66 -20 -95 -23 -235 -23 -182 0 -256 12
-455 77 -397 129 -767 344 -990 574 -105 109 -161 188 -240 339 -96 182 -120
205 -219 205 -93 0 -154 -38 -198 -124 -44 -86 -54 -161 -63 -476 -8 -289 -14
-345 -45 -379 -37 -39 -151 47 -230 173 -176 285 -306 931 -266 1326 29 284
124 601 218 728 55 74 139 142 233 191 122 63 228 92 430 115 61 7 291 -4 396
-20z m-1080 -156 c-83 -82 -136 -166 -186 -294 -118 -307 -171 -680 -141 -994
16 -164 54 -386 91 -534 17 -66 29 -121 27 -123 -14 -14 -106 242 -147 409
-88 356 -78 808 31 1429 l22 126 91 8 c50 3 125 12 166 20 117 20 116 20 46
-47z m3264 -256 c6 -68 14 -130 16 -137 4 -9 -12 -21 -42 -35 -52 -22 -133
-80 -201 -143 l-42 -38 59 88 c69 104 150 264 176 347 10 32 19 54 21 50 1 -5
7 -65 13 -132z m1905 -681 c21 -39 53 -92 71 -118 l34 -48 -32 -2 c-243 -19
-358 -42 -473 -98 -163 -78 -304 -263 -350 -458 -22 -92 -19 -257 5 -353 81
-318 390 -653 803 -869 42 -22 77 -42 77 -45 0 -3 -17 -16 -38 -30 -65 -44
-232 -212 -302 -305 -240 -319 -426 -760 -515 -1220 l-25 -130 5 495 c10 938
8 1711 -4 1790 -39 260 -129 459 -271 602 -114 114 -288 203 -451 230 -61 10
-72 15 -84 38 -42 81 -191 206 -276 232 l-38 11 55 54 c65 64 136 159 171 226
l24 48 34 -30 c102 -89 241 -161 385 -197 110 -28 323 -26 445 4 199 49 433
197 573 363 l66 77 37 -98 c20 -54 54 -130 74 -169z m-3440 104 c76 -227 287
-438 537 -535 l72 -28 -84 -26 c-282 -85 -474 -79 -689 24 -89 43 -175 100
-253 169 l-47 42 97 88 c107 97 248 242 301 308 19 24 35 42 37 40 1 -1 14
-38 29 -82z m-6654 -595 c73 -38 264 -235 328 -340 29 -49 28 -95 -4 -116 -14
-9 -34 -14 -45 -11 -18 5 -20 0 -20 -46 1 -168 76 -314 346 -674 158 -210 228
-321 259 -410 80 -225 -42 -420 -305 -488 -92 -24 -256 -17 -323 13 -109 49
-188 147 -266 327 -129 301 -187 387 -301 449 -132 72 -358 74 -563 6 -289
-97 -584 -286 -808 -518 -287 -296 -451 -642 -505 -1065 -20 -159 -15 -515 9
-642 65 -344 183 -576 396 -778 178 -170 412 -287 695 -350 92 -20 128 -22
401 -22 187 0 339 5 405 13 566 70 909 267 1097 629 92 177 141 342 242 828
118 567 172 996 172 1370 1 345 -27 421 -196 535 -117 79 -145 127 -131 223
16 111 49 171 116 205 75 39 191 28 487 -46 133 -34 304 -71 380 -82 266 -41
327 -64 356 -138 29 -72 -9 -419 -72 -662 -42 -164 -96 -295 -195 -478 -280
-515 -324 -790 -143 -884 51 -26 129 -29 173 -5 34 18 36 20 238 244 242 269
382 383 471 383 17 0 54 -7 81 -15 142 -42 220 -201 245 -503 12 -145 7 -777
-11 -1177 -5 -115 -12 -293 -16 -394 l-7 -184 39 6 c50 6 199 -19 235 -40 37
-22 67 -79 95 -181 37 -135 31 -188 -29 -250 -33 -34 -106 -62 -163 -62 -18 0
-69 12 -114 26 -76 24 -91 25 -258 22 -167 -3 -179 -2 -223 20 -111 54 -171
239 -234 717 -76 581 -99 699 -158 808 -48 92 -121 136 -223 137 -69 0 -111
-28 -148 -103 -26 -51 -29 -71 -34 -176 -5 -137 7 -260 48 -461 42 -210 93
-385 250 -872 253 -780 275 -902 174 -944 -104 -43 -519 9 -766 96 -139 49
-222 96 -285 163 -104 109 -133 210 -139 482 -6 231 -8 246 -40 285 -31 37
-73 40 -124 9 -19 -12 -89 -76 -155 -144 -373 -380 -951 -656 -1480 -706 -363
-34 -907 97 -1334 322 -238 125 -433 271 -621 465 -401 415 -628 935 -712
1639 -20 170 -18 739 4 882 73 479 239 871 513 1208 166 205 426 430 676 585
499 310 1188 530 1859 594 231 23 246 31 234 136 -8 72 -2 99 30 133 30 32 44
33 97 7z m3821 -355 c154 -559 427 -855 719 -781 165 43 269 164 269 314 l0
57 35 -69 c79 -154 179 -265 277 -311 64 -30 161 -34 211 -9 114 58 146 158
147 454 1 311 25 486 71 511 11 6 22 9 23 7 2 -2 29 -52 60 -113 146 -276 303
-452 569 -633 l85 -58 -52 -12 c-85 -19 -263 -115 -388 -209 -227 -171 -426
-363 -799 -773 -108 -119 -222 -237 -252 -263 l-56 -48 -75 115 c-41 63 -101
141 -134 174 -157 157 -400 193 -612 90 -71 -34 -101 -57 -181 -137 -109 -110
-184 -218 -268 -387 -94 -189 -166 -402 -211 -622 l-18 -87 -6 60 c-24 212
-48 310 -100 414 -68 135 -173 217 -311 242 -125 23 -234 -6 -350 -94 -69 -52
-321 -307 -440 -445 -47 -55 -86 -91 -95 -90 -26 6 -18 119 14 218 34 101 121
287 210 449 176 317 276 706 280 1088 l1 142 55 6 c243 24 411 66 575 145 300
144 545 431 660 773 l30 89 13 -49 c7 -26 27 -97 44 -158z m-3201 -290 c39
-31 113 -81 163 -111 50 -31 93 -58 95 -60 2 -2 -13 -22 -33 -45 -38 -45 -71
-122 -82 -189 -4 -22 -9 -40 -13 -40 -9 1 -112 144 -173 240 -29 47 -62 111
-72 142 l-19 56 24 30 c13 17 27 31 31 31 4 1 40 -24 79 -54z m10107 -355
c529 -98 731 -170 803 -287 41 -66 40 -84 -12 -527 -104 -896 -156 -1511 -160
-1911 -2 -145 -2 -147 -10 -65 -5 47 -10 312 -13 590 -2 278 -9 561 -15 630
-41 448 -125 759 -259 957 -85 125 -220 218 -334 230 l-54 5 -10 67 c-10 62
-45 158 -108 295 -21 45 -23 57 -11 52 8 -3 91 -19 183 -36z m-2591 -303 c3
-56 2 -222 -2 -369 l-7 -266 -77 77 c-88 89 -187 152 -298 189 -67 22 -95 26
-203 26 -140 0 -214 -15 -314 -66 -90 -45 -143 -84 -218 -160 l-66 -67 -7 97
c-14 211 -54 395 -115 529 -17 36 -29 67 -28 69 2 1 62 -18 133 -42 243 -84
481 -117 670 -94 164 20 283 64 440 163 55 35 72 41 78 30 5 -7 11 -59 14
-116z m-8518 -210 c82 -41 113 -86 206 -300 135 -314 236 -432 425 -498 55
-19 86 -23 200 -23 157 -1 220 13 349 74 100 48 211 153 254 239 l27 55 0 -65
c0 -289 -131 -1092 -265 -1619 -145 -573 -429 -806 -1085 -892 -56 -7 -212
-13 -380 -13 -241 0 -298 3 -370 19 -671 146 -1014 629 -987 1386 14 387 117
699 327 992 67 94 283 304 387 378 177 124 384 230 540 276 137 41 278 37 372
-9z m13331 -111 c362 -90 607 -125 932 -133 l247 -6 -97 -48 c-428 -214 -837
-859 -1216 -1919 -102 -283 -116 -310 -166 -310 -61 0 -114 104 -145 281 -56
323 -45 1209 21 1679 43 305 132 500 228 500 12 0 100 -20 196 -44z m-6820
-906 c93 -177 179 -250 318 -273 37 -6 68 -11 69 -12 2 -1 -8 -35 -22 -76 -34
-100 -71 -243 -92 -364 -14 -79 -17 -157 -17 -370 0 -240 2 -284 23 -400 38
-207 39 -186 -11 -221 -143 -103 -253 -114 -391 -41 -133 70 -203 185 -262
431 -68 278 -76 762 -19 1045 23 110 69 230 112 285 49 65 128 108 191 104
l45 -3 56 -105z m-2852 -1900 c11 -52 35 -139 52 -193 17 -55 30 -100 28 -103
-2 -2 -26 3 -53 11 -26 8 -59 15 -73 15 l-25 0 7 178 c3 97 9 220 13 272 l7
95 12 -90 c7 -49 21 -133 32 -185z"/>
<path d="M19619 15800 c-126 -66 -249 -279 -249 -431 0 -66 17 -130 38 -143
15 -9 118 21 160 47 115 73 212 265 212 420 0 62 -3 71 -29 98 -35 35 -78 38
-132 9z"/>
<path d="M18062 15444 c-60 -30 -118 -92 -172 -184 -78 -132 -100 -260 -60
-348 l20 -44 42 7 c60 10 152 61 195 108 79 88 155 304 138 394 -8 43 -54 93
-87 93 -13 0 -47 -12 -76 -26z"/>
<path d="M16210 15061 c-197 -63 -343 -215 -345 -357 0 -45 4 -57 29 -83 17
-17 46 -36 65 -41 59 -16 164 -12 232 10 133 42 211 136 260 315 24 87 19 125
-18 155 -33 26 -144 27 -223 1z"/>
<path d="M24390 13715 c-116 -21 -299 -89 -475 -175 -158 -77 -358 -191 -370
-210 -17 -27 281 -132 518 -182 139 -29 168 -32 342 -32 153 -1 201 2 246 16
88 28 149 74 182 138 26 51 28 62 25 146 -3 78 -8 100 -36 157 -67 136 -209
182 -432 142z m274 -237 c39 -17 58 -55 63 -122 5 -55 3 -63 -20 -84 -74 -69
-349 -70 -640 -1 l-92 22 100 48 c114 55 238 102 340 129 79 21 212 26 249 8z"/>
<path d="M20982 11704 c-153 -77 -286 -460 -353 -1019 -16 -132 -16 -403 0
-485 47 -242 190 -293 331 -117 138 170 259 504 296 811 37 304 -12 651 -110
779 -29 38 -36 42 -81 45 -31 1 -63 -4 -83 -14z m122 -339 c9 -33 21 -120 28
-192 20 -216 -9 -446 -83 -673 -38 -117 -127 -303 -167 -350 l-29 -34 -12 65
c-50 290 66 990 204 1225 31 53 35 51 59 -41z"/>
<path d="M17900 11683 c-21 -11 -45 -36 -60 -63 -22 -40 -25 -57 -25 -147 0
-96 1 -103 30 -144 64 -90 210 -134 367 -111 102 15 142 37 146 81 4 44 -43
142 -102 210 -130 150 -270 218 -356 174z"/>
<path d="M14513 11424 c-18 -9 -39 -32 -49 -52 -23 -46 -31 -189 -15 -244 17
-54 71 -111 134 -139 46 -21 67 -24 187 -24 174 0 190 4 190 52 0 50 -58 166
-122 241 -63 74 -156 146 -217 167 -55 19 -68 19 -108 -1z"/>
<path d="M24730 11293 c-209 -73 -459 -434 -525 -761 -23 -111 -18 -129 41
-138 118 -17 320 86 455 234 215 234 338 507 279 617 -32 60 -150 83 -250 48z
m115 -260 c-50 -119 -132 -240 -239 -352 -69 -71 -156 -140 -156 -124 0 22
123 255 165 313 85 116 180 200 227 200 17 0 17 -2 3 -37z"/>
<path d="M17705 10888 c-39 -95 -72 -475 -56 -645 23 -250 87 -374 218 -423
112 -42 212 -19 272 62 59 80 86 173 136 473 42 248 66 341 106 412 16 29 29
55 29 58 0 16 -90 1 -162 -27 -69 -26 -98 -32 -168 -32 -71 0 -94 4 -141 26
-31 14 -74 41 -95 60 -89 78 -118 86 -139 36z m230 -329 c37 -13 95 -23 153
-27 l93 -5 -5 -26 c-3 -14 -17 -98 -31 -185 -39 -246 -77 -375 -116 -399 -9
-6 -28 -7 -43 -3 -77 19 -115 123 -123 332 -5 114 3 334 11 334 1 0 29 -10 61
-21z"/>
<path d="M14290 10745 c-23 -60 -52 -239 -57 -350 -13 -277 63 -456 226 -537
41 -20 61 -23 171 -23 122 0 127 1 192 33 78 38 123 87 167 183 66 141 80 408
30 592 -12 45 -29 47 -99 12 -79 -40 -171 -57 -285 -53 -125 5 -188 31 -270
112 -32 31 -59 56 -61 56 -3 0 -9 -11 -14 -25z m354 -382 c65 -5 224 9 263 24
15 6 16 -4 10 -103 -10 -188 -64 -305 -153 -334 -55 -19 -177 -9 -211 16 -79
59 -114 185 -105 375 l4 66 61 -19 c33 -10 92 -21 131 -25z"/>
</g>
</svg>
