<?xml version="1.0" encoding="UTF-8" standalone="no"?>
<svg
   xmlns:dc="http://purl.org/dc/elements/1.1/"
   xmlns:cc="http://creativecommons.org/ns#"
   xmlns:rdf="http://www.w3.org/1999/02/22-rdf-syntax-ns#"
   xmlns:svg="http://www.w3.org/2000/svg"
   xmlns="http://www.w3.org/2000/svg"
   id="svg4480"
   xml:space="preserve"
   enable-background="new 0 0 320 164.707"
   viewBox="0 0 320.09375 77.981367"
   height="77.981369"
   width="320.09375"
   y="0px"
   x="0px"
   version="1.1"><metadata
     id="metadata4502"><rdf:RDF><cc:Work
         rdf:about=""><dc:format>image/svg+xml</dc:format><dc:type
           rdf:resource="http://purl.org/dc/dcmitype/StillImage" /><dc:title></dc:title></cc:Work></rdf:RDF></metadata><defs
     id="defs4500" /><g
     transform="translate(-0.00599102,-57.744028)"
     id="Capa_1"><g
       id="g4483"><g
         id="g4485"><g
           id="g4487"><path
             style="clip-rule:evenodd;fill:#410e09;fill-rule:evenodd"
             id="path4489"
             d="M 0.04822183,57.744028 320.09975,57.786831 320.001,126.837 C 320.006,130.989 319.202,134.564 313.147,135.515 307.074,136.469 303.203,133.669 303.128,127.937 302.965,115.028 303.098,102.117 303.089,89.207 303.087,86.725 303.126,84.236 302.914,81.762 302.511,77.051 298.983,73.896 294.442,73.997 289.737,74.103 286.411,77.094 286.174,81.966 285.92,87.255 286.132,92.557 286.048,97.852 285.962,103.328 283.362,105.747 277.686,105.803 272.146,105.858 269.748,103.508 269.495,97.782 269.356,94.645 269.356,91.498 269.038,88.372 268.628,84.348 265.209,82.397 260.555,82.468 256.05,82.536 253.044,84.873 252.892,88.503 252.533,97.099 252.507,105.704 252.392,114.306 252.33,118.939 252.453,123.574 252.327,128.205 252.177,133.702 249.64,135.81 243.455,135.598 237.546,135.395 235.693,132.485 235.716,128.252 235.763,119.313 235.647,110.373 235.658,101.433 235.662,97.462 233.592,94.698 228.531,93.77 223.795,92.902 219.546,95.513 219.152,99.772 218.756,104.057 218.932,108.375 218.822,112.677 218.715,116.889 216.398,119.712 210.713,119.996 205.544,120.255 202.033,117.437 201.898,112.693 201.691,105.413 201.91,98.125 201.782,90.842 201.686,85.423 198.19,82.144 193.035,82.324 188.141,82.495 185.15,85.665 185.118,90.919 185.04,103.496 185.166,116.074 184.923,128.648 184.822,133.951 180.883,136.46 174.808,135.538 169.377,134.714 168.135,131.517 168.139,127.729 168.16,109.854 168.187,91.978 168.185,74.102 168.185,71.456 168.197,68.799 167.936,66.164 167.56,62.389 165.023,59.851 160.066,59.719 154.743,59.578 151.869,62.193 151.526,66.155 151.13,70.77 151.291,75.416 151.265,80.048 151.232,86.007 151.32,91.967 151.236,97.926 151.16,103.312 148.366,105.844 142.754,105.838 137.316,105.832 134.885,103.572 134.699,98.251 134.605,95.605 134.787,92.948 134.576,90.31 134.245,86.151 132.32,82.497 126.297,82.442 120.443,82.389 117.779,85.668 117.626,89.989 117.387,96.764 117.57,103.55 117.355,110.326 117.57978,116.8919 113.06226,120.61117 106.798,119.409 104.286,118.844 101.185,115.645 101.048,113.496 100.415,103.588 100.801,93.642 100.646,83.711 100.613,81.605 100.71,78.911 99.205,77.553 97.279,75.821 93.213,73.824 91.107,74.38 88.245,75.138 84.796,78.021 84.372,80.312 83.349,85.829 83.903,91.533 83.885,97.16 83.851,107.424 83.928,117.688 83.829,127.952 83.78,133.129 81.063,135.578 75.762,135.611 69.602,135.649 67.071,133.605 67.044,128.033 66.954,108.663 67.024,89.292 66.968,69.922 66.947,62.778 64.281,59.578 58.708,59.661 52.833,59.748 50.306,62.76 50.276,69.839 50.237,79.106 50.287,88.373 50.226,97.639 50.192,103.148 47.5,105.776 42.054,105.815 36.434,105.856 33.571,103.391 33.222,98.025 33.05,95.382 33.268,92.723 33.076,90.083 32.706,84.993 29.728,82.335 24.657,82.349 19.926,82.362 16.481,85.478 16.378,90.222 16.215,97.67 16.344,105.12 16.229,112.569 16.152,117.458 13.002,120.252 7.811,119.98 2.084,119.681 0.001,116.929 0.006,112.61 Z" /></g></g></g></g><g
     transform="translate(-0.00599102,-57.744028)"
     id="Capa_2" /></svg>